<?xml version="1.0" encoding="UTF-8"?>
<svg version="1.1" xmlns="http://www.w3.org/2000/svg" width="507" height="146">
<path d="M0 0 C1.09964408 3.35716883 0.88421538 5.75499861 0.22265625 9.203125 C0.03896484 10.1828125 -0.14472656 11.1625 -0.33398438 12.171875 C-0.63272461 13.69554687 -0.63272461 13.69554687 -0.9375 15.25 C-1.13279297 16.28125 -1.32808594 17.3125 -1.52929688 18.375 C-2.01203382 20.91819952 -2.50252017 23.45965046 -3 26 C-1.71029297 25.20335937 -1.71029297 25.20335937 -0.39453125 24.390625 C17.43481663 13.62583175 37.90819118 9.15957132 58.51171875 13.7890625 C67.86728204 16.46208058 75.84417493 20.38086181 83 27 C83.33 27.66 83.66 28.32 84 29 C86.82406634 27.71300648 88.84169633 26.34014601 91.0625 24.1875 C101.73843466 14.85459336 117.22831146 11.97091512 131 12 C138.5682442 12.60902456 145.74550542 13.80419513 153 16 C153 15.34 153 14.68 153 14 C180.06 14 207.12 14 235 14 C234.67 16.31 234.34 18.62 234 21 C234.99966797 20.51080078 234.99966797 20.51080078 236.01953125 20.01171875 C255.68345591 10.68854328 276.47532054 9.83265162 297 17 C297 19.97 297 22.94 297 26 C297.58265625 25.62488281 298.1653125 25.24976562 298.765625 24.86328125 C317.60393157 13.10414964 337.2878362 9.79397874 359 14 C370.75377466 17.05920162 379.76417044 23.24439921 387 33 C391.6100664 40.99184521 392.28268741 50.60784963 390.17578125 59.46484375 C388.75756258 64.1518192 387.31516608 68.67209945 385 73 C386.8253125 72.9071875 386.8253125 72.9071875 388.6875 72.8125 C392.59741696 72.8125 394.87269312 73.51655042 398 76 C400.8524402 80.27866031 400.47490508 83.98532431 400 89 C398.65950976 93.30871863 396.11522464 94.7096108 392.3125 96.8125 C387.58686305 99.03306362 384.16346901 99.47809898 379 99 C378.96261719 99.59683594 378.92523438 100.19367188 378.88671875 100.80859375 C378.44119665 106.68773834 377.65542493 112.4499516 376.625 118.25 C376.51115967 118.89122803 376.39731934 119.53245605 376.2800293 120.19311523 C375.39148247 125.07330604 374.41829175 129.93637433 373.44287109 134.79980469 C373.30390915 135.49359222 373.1649472 136.18737976 373.02177429 136.90219116 C372.68138209 138.6015007 372.34071849 140.30075586 372 142 C361.47347182 142.04627253 350.9469677 142.08184327 340.42035866 142.10362434 C335.53280682 142.1140764 330.64532439 142.12826144 325.7578125 142.15087891 C321.04403371 142.17255671 316.33032182 142.1845579 311.61649704 142.18975449 C309.81509726 142.19345937 308.01370128 142.20069374 306.21232986 142.21146011 C303.69567099 142.22590787 301.17929111 142.22798078 298.66259766 142.22705078 C297.53726875 142.23783661 297.53726875 142.23783661 296.38920593 142.24884033 C291.22810432 142.22810432 291.22810432 142.22810432 289 140 C288.67 140.66 288.34 141.32 288 142 C251.37 142 214.74 142 177 142 C177 141.34 177 140.68 177 140 C176.19433594 140.32355469 175.38867188 140.64710938 174.55859375 140.98046875 C170.28097733 142.20599881 166.48431819 142.33084779 162.0625 142.3125 C160.90331055 142.33666992 160.90331055 142.33666992 159.72070312 142.36132812 C154.40657405 142.3658202 150.74650659 141.39537417 146 139 C146 139.99 146 140.98 146 142 C62.84 142 -20.32 142 -106 142 C-106 126.82 -106 111.64 -106 96 C-97.42 95.67 -88.84 95.34 -80 95 C-81.815 94.01 -83.63 93.02 -85.5 92 C-96.69433442 85.4019276 -102.86868866 77.39393403 -107 65 C-108.74696705 46.30383811 -103.94131559 33.41486567 -92.3515625 18.94140625 C-69.57246983 -6.09246971 -30.57951402 -9.06059675 0 0 Z M-50.5 43.375 C-52.27050952 46.47339166 -53.07477489 48.41080547 -53 52 C-50.48598399 55.14252002 -48.8303089 56.72323037 -45 58 C-35.85311353 58.94250013 -27.68138925 57.12092616 -20 52 C-18.99194445 49.82102508 -18.99194445 49.82102508 -18.3125 47.375 C-17.93544922 46.14910156 -17.93544922 46.14910156 -17.55078125 44.8984375 C-17.36902344 44.27195312 -17.18726563 43.64546875 -17 43 C-18.26831693 42.18357746 -19.53975931 41.37200895 -20.8125 40.5625 C-21.52019531 40.11003906 -22.22789063 39.65757813 -22.95703125 39.19140625 C-31.81710423 34.02444208 -43.34024648 36.57323416 -50.5 43.375 Z M256 53 C253.85237816 56.22143276 253.438932 57.2595467 254 61 C256.82638015 63.66049779 258.83366962 64.43129415 262.6875 64.4375 C267.96423981 64.24988258 272.73038142 63.24192045 277 60 C278.34650524 57.55323755 278.61999912 55.82286366 279 53 C270.98809731 47.65873154 264.00317438 47.3827485 256 53 Z M28 52 C25.31399601 55.01356546 24.02974449 56.69124263 23.9375 60.75 C24.83135302 63.14353861 24.83135302 63.14353861 27.0625 64.375 C31.62254966 65.34522333 35.69371079 65.24261272 39.8125 63.0234375 C42.62989657 60.92393525 43.93377099 59.1947912 45.0625 55.875 C45.23477078 53.06339532 45.23477078 53.06339532 43.9375 51.1875 C38.49470288 47.85159209 33.25310849 48.91059224 28 52 Z M153 50 C154.2491742 53.45925163 155.67527795 56.14693203 158 59 C158.66 56.03 159.32 53.06 160 50 C157.69 50 155.38 50 153 50 Z M206 50 C204.14277493 56.06716108 202.29202635 62.13626993 200.44580078 68.20678711 C199.81676363 70.27234767 199.18623658 72.3374551 198.55419922 74.40209961 C197.64680643 77.36715156 196.74475659 80.33378339 195.84375 83.30078125 C195.55939087 84.2258699 195.27503174 85.15095856 194.98205566 86.1040802 C194.72178589 86.96474594 194.46151611 87.82541168 194.19335938 88.7121582 C193.96241577 89.46938675 193.73147217 90.2266153 193.49353027 91.00679016 C192.87982616 93.14310986 192.87982616 93.14310986 193 96 C199.6 96 206.2 96 213 96 C212.525625 97.959375 212.05125 99.91875 211.5625 101.9375 C210.31685582 107.3078716 209.46513614 112.51139353 209 118 C211.83618666 115.16381334 211.96374417 111.9373423 212.625 108.125 C212.7590625 107.40441406 212.893125 106.68382812 213.03125 105.94140625 C213.64278112 102.55302465 214 99.45466614 214 96 C218.62 96 223.24 96 228 96 C224.52056195 93.20551192 224.52056195 93.20551192 220.97265625 90.5 C213.47617259 84.61319074 209.14656582 76.4559473 208 67 C207.8111706 61.2407032 208.25983597 55.70983677 209 50 C208.01 50 207.02 50 206 50 Z M325.5 54.375 C323.82055998 57.31402004 323.21659746 58.69230039 324 62 C327.03218313 64.84267168 328.77169748 65.00362385 332.9375 64.9375 C337.03021544 64.21025 339.84762134 62.77709549 343 60 C344.71455695 57.10970384 344.71455695 57.10970384 345 54 C344.14782671 51.55797882 344.14782671 51.55797882 342 50 C335.72071595 47.80955207 330.14947891 49.95799504 325.5 54.375 Z M-15 85 C-15.19335938 85.62648438 -15.38671875 86.25296875 -15.5859375 86.8984375 C-15.84632812 87.71570313 -16.10671875 88.53296875 -16.375 89.375 C-16.63023438 90.18710938 -16.88546875 90.99921875 -17.1484375 91.8359375 C-18 94 -18 94 -20 96 C-13.4 96 -6.8 96 0 96 C-1.32 95.01 -2.64 94.02 -4 93 C-6.32942275 91.17939314 -8.65369854 89.35240348 -10.9765625 87.5234375 C-12.92015801 85.96462683 -12.92015801 85.96462683 -15 85 Z M284 85 C283.80664062 85.78246094 283.61328125 86.56492187 283.4140625 87.37109375 C283.02347656 88.88896484 283.02347656 88.88896484 282.625 90.4375 C282.24214844 91.95150391 282.24214844 91.95150391 281.8515625 93.49609375 C281 96 281 96 279 97 C279.33 97.99 279.66 98.98 280 100 C280.99 99.67 281.98 99.34 283 99 C283.33 98.34 283.66 97.68 284 97 C286.71446979 96.68758545 289.33909361 96.48663408 292.0625 96.375 C292.82111328 96.33632812 293.57972656 96.29765625 294.36132812 96.2578125 C296.24047195 96.16326438 298.12020336 96.08053244 300 96 C299.13375 95.35224609 299.13375 95.35224609 298.25 94.69140625 C296.8282446 93.62262138 295.41094766 92.54785631 294 91.46484375 C293.34 90.96082031 292.68 90.45679687 292 89.9375 C291.34 89.43089844 290.68 88.92429687 290 88.40234375 C288.0647949 87.04543236 286.13875904 85.99776928 284 85 Z M148 86 C146.41606974 87.1033102 144.83288132 88.20768544 143.25 89.3125 C142.36828125 89.92738281 141.4865625 90.54226562 140.578125 91.17578125 C138.3584254 92.74638688 136.17533348 94.36849989 134 96 C137.96 96 141.92 96 146 96 C148.60759567 91.15531261 148.60759567 91.15531261 148 86 Z M361.25 93 C360.26515625 93.37125 359.2803125 93.7425 358.265625 94.125 C357.51796875 94.41375 356.7703125 94.7025 356 95 C356 95.33 356 95.66 356 96 C361.94 96 367.88 96 374 96 C373.01 94.35 372.02 92.7 371 91 C367.04526847 91 364.8865721 91.6146392 361.25 93 Z M57 95 C57 95.33 57 95.66 57 96 C63.27 96 69.54 96 76 96 C68.71483294 91.14322196 64.54612529 89.96255998 57 95 Z M338 100 C337.46818825 102.24743045 336.94992874 104.49807102 336.4375 106.75 C336.14746094 108.00296875 335.85742188 109.2559375 335.55859375 110.546875 C335.06555717 113.59473748 334.92333121 115.17641828 336 118 C336.50690584 115.93918639 337.00524619 113.87626474 337.5 111.8125 C337.7784375 110.66394531 338.056875 109.51539062 338.34375 108.33203125 C338.91495385 105.43181171 339.13283779 102.93903615 339 100 C338.67 100 338.34 100 338 100 Z " fill="#FCFBFB" transform="translate(107,4)"/>
<path d="M0 0 C1.39303345 0.00012085 1.39303345 0.00012085 2.81420898 0.00024414 C11.43211071 0.07135512 19.57088845 1.07064648 27.9375 3.1875 C26.42045827 14.65230302 24.86842959 25.98344999 21.9375 37.1875 C21.10605469 36.76597656 20.27460937 36.34445313 19.41796875 35.91015625 C18.33128906 35.36230469 17.24460937 34.81445312 16.125 34.25 C14.50658203 33.43208984 14.50658203 33.43208984 12.85546875 32.59765625 C5.60062059 29.09163191 -3.80586881 28.73769232 -11.5 31.3125 C-16.88572652 33.7563458 -21.87129759 37.58546366 -24.0625 43.1875 C-24.72392122 47.91743083 -24.77193356 51.90506242 -22.4375 56.125 C-17.44385802 60.46158383 -13.18064765 61.5872297 -6.625 61.5 C-5.36816406 61.49613281 -4.11132812 61.49226563 -2.81640625 61.48828125 C1.03283543 61.17986126 4.271609 60.37655364 7.9375 59.1875 C8.79214844 58.94773438 9.64679688 58.70796875 10.52734375 58.4609375 C17.92879239 55.62843636 19.94723781 51.02502001 23.04980469 44.20458984 C28.40491734 32.5340821 38.46439494 25.67524312 50.23046875 20.83203125 C65.92903463 15.43016448 85.19681138 14.14108322 100.5390625 21.2890625 C109.15414014 26.10162311 114.89992389 32.19858056 118.9375 41.1875 C119.205625 40.61902344 119.47375 40.05054688 119.75 39.46484375 C125.34061834 28.4491188 133.880013 23.34729882 145.125 18.9375 C158.70722984 15.31557204 173.86065259 16.0562961 186.9375 21.1875 C188.62353516 22.76049805 188.62353516 22.76049805 189.9375 24.1875 C188.36616884 26.82037931 186.78138923 29.44332809 185.1875 32.0625 C184.7440625 32.80886719 184.300625 33.55523437 183.84375 34.32421875 C183.40546875 35.03964844 182.9671875 35.75507812 182.515625 36.4921875 C182.11762695 37.15202637 181.71962891 37.81186523 181.30957031 38.49169922 C179.68466419 40.49999066 178.37391053 41.3468846 175.9375 42.1875 C173.5 40.875 173.5 40.875 170.9375 39.1875 C167.28981212 38.23215317 163.8847762 38.07970149 160.125 38.125 C159.14917969 38.13402344 158.17335937 38.14304688 157.16796875 38.15234375 C156.43191406 38.16394531 155.69585937 38.17554688 154.9375 38.1875 C154.2775 39.5075 153.6175 40.8275 152.9375 42.1875 C154.06027344 42.42984375 155.18304688 42.6721875 156.33984375 42.921875 C178.37954401 47.79743572 178.37954401 47.79743572 183.89453125 55.01171875 C186.11561847 59.6452228 185.8720981 64.23034118 184.9375 69.1875 C180.97380294 79.42705075 173.14711879 84.23473756 163.8203125 89.109375 C156.24230439 91.94342681 148.59019619 92.5236835 140.5625 92.4375 C139.6449292 92.43073242 138.7273584 92.42396484 137.78198242 92.41699219 C127.00661498 92.25319517 117.78549052 90.67574347 107.9375 86.1875 C109.5856544 81.15367902 112.54398051 77.1614509 115.5625 72.875 C116.3359375 71.76415039 116.3359375 71.76415039 117.125 70.63085938 C118.39144726 68.81327303 119.66235759 66.99899162 120.9375 65.1875 C123.97659843 66.34277372 126.67359636 67.61646822 129.4375 69.3125 C134.94736915 72.14644799 140.89765989 71.69150855 146.9375 71.1875 C147.9275 70.8575 148.9175 70.5275 149.9375 70.1875 C150.67073796 68.17241642 150.67073796 68.17241642 150.9375 66.1875 C149.75414062 66.02894531 148.57078125 65.87039062 147.3515625 65.70703125 C127.02563634 62.78551526 127.02563634 62.78551526 121.18359375 56.21484375 C119.9375 54.1875 119.9375 54.1875 119.9375 51.1875 C119.2775 51.1875 118.6175 51.1875 117.9375 51.1875 C118.03224609 52.7034375 118.03224609 52.7034375 118.12890625 54.25 C117.75096786 62.02473259 113.00221541 70.4499649 107.6875 76.125 C91.17322143 90.75509914 72.20664818 93.46897781 50.9375 92.1875 C40.67210948 90.96224276 31.54340568 87.49048864 24.5 79.6875 C21.02736165 75.23389036 18.76485796 70.81353414 17.9375 65.1875 C15.59576177 69.11489953 14.84835 73.40096692 13.875 77.8125 C12.05743243 85.94763514 12.05743243 85.94763514 10.9375 88.1875 C-6.9847445 93.62818137 -30.18576656 94.15293447 -47.06640625 85.6796875 C-55.25289262 80.89031452 -62.5813382 74.19756583 -66.0625 65.1875 C-68.79692695 53.95471016 -67.75387638 43.24410681 -62.0625 33.1875 C-51.35458743 15.86861533 -35.32833083 6.38303077 -16.0625 1.1875 C-10.71760073 0.01296024 -5.4477819 -0.00439062 0 0 Z M61.9375 50.1875 C59.25149601 53.20106546 57.96724449 54.87874263 57.875 58.9375 C58.76885302 61.33103861 58.76885302 61.33103861 61 62.5625 C65.56004966 63.53272333 69.63121079 63.43011272 73.75 61.2109375 C76.56739657 59.11143525 77.87127099 57.3822912 79 54.0625 C79.17227078 51.25089532 79.17227078 51.25089532 77.875 49.375 C72.43220288 46.03909209 67.19060849 47.09809224 61.9375 50.1875 Z " fill="#E31C37" transform="translate(73.0625,5.8125)"/>
<path d="M0 0 C0.93489258 -0.01393799 1.86978516 -0.02787598 2.83300781 -0.04223633 C8.81689965 -0.00125806 13.27537661 0.94611779 18.75 3.375 C18.90856416 9.92237841 18.36020183 15.99132812 17.25 22.4375 C17.10691406 23.30310547 16.96382812 24.16871094 16.81640625 25.06054688 C16.46736324 27.1664397 16.10960461 29.27088495 15.75 31.375 C13.19916116 30.15718016 11.12677548 28.92415673 8.8125 27.25 C3.11307241 23.96328906 -4.21913299 24.45244241 -10.46875 25.8828125 C-15.79099205 27.91366802 -19.16412454 31.7461868 -22.25 36.375 C-22.59284343 40.18913318 -22.36049057 43.95862581 -19.9453125 47.0390625 C-15.57904572 50.75364767 -11.67516992 51.76087371 -6.00390625 51.7421875 C-1.37481924 51.1249759 2.74594034 49.27144617 7.02734375 47.46875 C9.75 46.375 9.75 46.375 11.75 46.375 C11.14828638 52.70249371 10.12848091 58.75095652 8.6875 64.9375 C8.50123047 65.75541016 8.31496094 66.57332031 8.12304688 67.41601562 C7.66979313 69.40335896 7.21053788 71.38933201 6.75 73.375 C-0.90465004 75.23749506 -8.26178159 75.77111464 -16.125 75.8125 C-17.21941406 75.84537109 -18.31382812 75.87824219 -19.44140625 75.91210938 C-30.7011341 75.98539754 -41.02073237 72.22239906 -49.25 64.375 C-54.5055472 58.31297497 -56.64114333 52.70236143 -56.625 44.625 C-56.62584595 43.56418213 -56.62584595 43.56418213 -56.62670898 42.48193359 C-56.5045061 36.65492605 -55.24837989 32.31209139 -52.25 27.375 C-51.92 26.715 -51.59 26.055 -51.25 25.375 C-56.86 25.375 -62.47 25.375 -68.25 25.375 C-71.24053566 34.87434856 -74.17443657 44.38630093 -77.01806641 53.93066406 C-79.05470357 60.75897356 -81.15414271 67.5634638 -83.25 74.375 C-94.14 74.375 -105.03 74.375 -116.25 74.375 C-113.99737126 64.23817067 -113.99737126 64.23817067 -112.734375 60.09765625 C-112.45537354 59.17992432 -112.17637207 58.26219238 -111.88891602 57.31665039 C-111.59557373 56.36653076 -111.30223145 55.41641113 -111 54.4375 C-110.54355103 52.94754517 -110.54355103 52.94754517 -110.07788086 51.42749023 C-107.2822096 42.36023271 -104.31086358 33.35577556 -101.25 24.375 C-101.84095459 24.4464624 -102.43190918 24.5179248 -103.04077148 24.59155273 C-108.49943657 25.22926027 -113.75326507 25.46224976 -119.25 25.375 C-117.62506776 16.9548966 -115.03169143 9.72007429 -112.25 1.375 C-89.81 1.375 -67.37 1.375 -44.25 1.375 C-44.9837754 6.51142777 -45.86098089 10.89606431 -47.3125 15.8125 C-47.67472656 17.04871094 -48.03695312 18.28492188 -48.41015625 19.55859375 C-48.82587891 20.95271484 -48.82587891 20.95271484 -49.25 22.375 C-48.651875 21.55 -48.05375 20.725 -47.4375 19.875 C-35.48293548 5.59030849 -17.90859865 0.17339507 0 0 Z " fill="#E31B37" transform="translate(377.25,22.625)"/>
<path d="M0 0 C7.47150894 6.80894117 10.07674181 13.12187408 10.625 23.125 C10.41977547 33.40674871 5.87760874 42.97885546 -1.2109375 50.484375 C-18.43353497 65.07469775 -38.18912491 67.47089143 -60 66 C-70.16902187 64.19515332 -79.39923953 58.94805927 -85.78125 50.7578125 C-90.75745589 43.58059247 -90.95173221 36.58407009 -90 28 C-86.84173277 15.41270306 -77.69054575 5.92053541 -67 -1 C-47.8652003 -12.04162184 -18.11968268 -13.88757686 0 0 Z M-48.5 26.375 C-50.17944002 29.31402004 -50.78340254 30.69230039 -50 34 C-46.96781687 36.84267168 -45.22830252 37.00362385 -41.0625 36.9375 C-36.96978456 36.21025 -34.15237866 34.77709549 -31 32 C-29.28544305 29.10970384 -29.28544305 29.10970384 -29 26 C-29.85217329 23.55797882 -29.85217329 23.55797882 -32 22 C-38.27928405 19.80955207 -43.85052109 21.95799504 -48.5 26.375 Z " fill="#E31B37" transform="translate(481,32)"/>
<path d="M0 0 C1.39303345 0.00012085 1.39303345 0.00012085 2.81420898 0.00024414 C11.43211071 0.07135512 19.57088845 1.07064648 27.9375 3.1875 C26.42045827 14.65230302 24.86842959 25.98344999 21.9375 37.1875 C21.10605469 36.76597656 20.27460937 36.34445313 19.41796875 35.91015625 C18.33128906 35.36230469 17.24460937 34.81445312 16.125 34.25 C14.50658203 33.43208984 14.50658203 33.43208984 12.85546875 32.59765625 C5.60062059 29.09163191 -3.80586881 28.73769232 -11.5 31.3125 C-16.88572652 33.7563458 -21.87129759 37.58546366 -24.0625 43.1875 C-24.72392122 47.91743083 -24.77193356 51.90506242 -22.4375 56.125 C-17.44385802 60.46158383 -13.18064765 61.5872297 -6.625 61.5 C-5.36816406 61.49613281 -4.11132812 61.49226563 -2.81640625 61.48828125 C3.25450004 61.00185067 8.39515722 59.13329044 13.875 56.5625 C14.83277344 56.11648437 15.79054688 55.67046875 16.77734375 55.2109375 C17.49019531 54.87320313 18.20304687 54.53546875 18.9375 54.1875 C18.9375 57.8175 18.9375 61.4475 18.9375 65.1875 C18.2775 65.1875 17.6175 65.1875 16.9375 65.1875 C16.71815796 66.12601807 16.71815796 66.12601807 16.49438477 67.08349609 C15.83217208 69.91044291 15.1661345 72.73647487 14.5 75.5625 C14.26990234 76.54734375 14.03980469 77.5321875 13.80273438 78.546875 C13.58037109 79.48789063 13.35800781 80.42890625 13.12890625 81.3984375 C12.92467041 82.26774902 12.72043457 83.13706055 12.51000977 84.03271484 C11.9375 86.1875 11.9375 86.1875 10.9375 88.1875 C-6.9847445 93.62818137 -30.18576656 94.15293447 -47.06640625 85.6796875 C-55.25289262 80.89031452 -62.5813382 74.19756583 -66.0625 65.1875 C-68.79692695 53.95471016 -67.75387638 43.24410681 -62.0625 33.1875 C-51.35458743 15.86861533 -35.32833083 6.38303077 -16.0625 1.1875 C-10.71760073 0.01296024 -5.4477819 -0.00439062 0 0 Z " fill="#E31C38" transform="translate(73.0625,5.8125)"/>
<path d="M0 0 C2.47923801 -0.02685095 4.9581884 -0.04676547 7.4375 -0.0625 C8.14455078 -0.07087891 8.85160156 -0.07925781 9.58007812 -0.08789062 C11.38693559 -0.09653588 13.19387603 -0.05220011 15 0 C17.11925604 2.11925604 16.41831017 6.6196093 16.5625 9.5625 C16.60568359 10.36880859 16.64886719 11.17511719 16.69335938 12.00585938 C16.79975262 14.00368805 16.90040888 16.0018207 17 18 C17.23710693 17.49025635 17.47421387 16.9805127 17.71850586 16.45532227 C18.78925593 14.15665983 19.86333195 11.85956706 20.9375 9.5625 C21.31068359 8.76005859 21.68386719 7.95761719 22.06835938 7.13085938 C22.42607422 6.36708984 22.78378906 5.60332031 23.15234375 4.81640625 C23.48226318 4.10943604 23.81218262 3.40246582 24.15209961 2.67407227 C25 1 25 1 26 0 C27.85287502 -0.07226502 29.70833878 -0.0838122 31.5625 -0.0625 C32.57441406 -0.05347656 33.58632812 -0.04445313 34.62890625 -0.03515625 C35.41136719 -0.02355469 36.19382813 -0.01195313 37 0 C38.22517308 5.66642551 38.09228867 11.23708518 38 17 C38.66 17 39.32 17 40 17 C40.3403125 15.8553125 40.3403125 15.8553125 40.6875 14.6875 C42.4743967 9.66717117 44.79490389 4.85121145 47 0 C56.24 0 65.48 0 75 0 C74 8 74 8 73 12 C75.97 12 78.94 12 82 12 C82.06058594 11.21753906 82.12117188 10.43507813 82.18359375 9.62890625 C82.30927734 8.11103516 82.30927734 8.11103516 82.4375 6.5625 C82.55931641 5.04849609 82.55931641 5.04849609 82.68359375 3.50390625 C83 1 83 1 84 0 C86.35313555 -0.07271741 88.70833668 -0.08370868 91.0625 -0.0625 C92.99802734 -0.04896484 92.99802734 -0.04896484 94.97265625 -0.03515625 C95.97167969 -0.02355469 96.97070312 -0.01195313 98 0 C97.67 3.3 97.34 6.6 97 10 C97.53109375 9.51789063 98.0621875 9.03578125 98.609375 8.5390625 C99.31578125 7.90742187 100.0221875 7.27578125 100.75 6.625 C101.79414063 5.68527344 101.79414063 5.68527344 102.859375 4.7265625 C109.42995427 -0.5730653 117.85976932 -0.83252359 126 0 C131.47156235 1.70062073 135.2417997 4.77202467 139 9 C139.66 6.03 140.32 3.06 141 0 C145.95 0 150.9 0 156 0 C154.850477 7.71822587 153.59599089 15.36204362 152 23 C155.63 23 159.26 23 163 23 C162.67 26.63 162.34 30.26 162 34 C153.09 34 144.18 34 135 34 C135.33 30.7 135.66 27.4 136 24 C134.2984375 25.6396875 134.2984375 25.6396875 132.5625 27.3125 C125.40624298 33.49290379 118.43568591 34.58482386 109.09765625 34.35546875 C103.63252978 33.72832309 99.75620487 31.86596767 96 27.875 C95 26 95 26 95 24 C94.34 24 93.68 24 93 24 C92.67 27.3 92.34 30.6 92 34 C87.38 34 82.76 34 78 34 C78.33 30.04 78.66 26.08 79 22 C76.36 22 73.72 22 71 22 C70.93941406 22.61488281 70.87882812 23.22976562 70.81640625 23.86328125 C70.69072266 25.07564453 70.69072266 25.07564453 70.5625 26.3125 C70.44068359 27.51326172 70.44068359 27.51326172 70.31640625 28.73828125 C70 31 70 31 69 34 C64.38 34 59.76 34 55 34 C56.06829635 24.94221076 57.21729626 15.95144855 59 7 C57.9163505 8.84605902 56.83298887 10.69228755 55.75097656 12.53930664 C54.83011206 14.10245616 53.90230708 15.66153675 52.96777344 17.21655273 C50.96878559 20.55553296 49.08937783 23.8010996 47.4921875 27.35546875 C46.20997588 30.14972237 45.34667247 32.00293383 43 34 C38.05320268 34.85040448 34.07031983 34.47833206 29 34 C28.67 28.72 28.34 23.44 28 18 C25.36 23.28 22.72 28.56 20 34 C15.71 34 11.42 34 7 34 C5.99896047 29.64099011 5.00216113 25.28103897 4.00927734 20.92016602 C3.67092358 19.436827 3.33141318 17.95375132 2.99072266 16.47094727 C2.50118456 14.33938708 2.01581571 12.20691405 1.53125 10.07421875 C1.23798828 8.79119873 0.94472656 7.50817871 0.64257812 6.1862793 C0 3 0 3 0 0 Z " fill="#0964AB" transform="translate(156,106)"/>
<path d="M0 0 C8.91 0 17.82 0 27 0 C26 9 26 9 25 10 C22.98035801 10.07244053 20.95832876 10.08377188 18.9375 10.0625 C17.83277344 10.05347656 16.72804688 10.04445313 15.58984375 10.03515625 C14.73519531 10.02355469 13.88054687 10.01195313 13 10 C13 10.99 13 11.98 13 13 C16.3 13 19.6 13 23 13 C22.67 15.97 22.34 18.94 22 22 C18.37 22 14.74 22 11 22 C11 22.66 11 23.32 11 24 C11.84304688 24 12.68609375 24 13.5546875 24 C17.36979167 24 21.18489583 24 25 24 C25.33 23.34 25.66 22.68 26 22 C28.16874252 22.50603992 29.99967627 22.99983813 32 24 C34.3329866 24.04022391 36.66706666 24.04320247 39 24 C39.33 23.34 39.66 22.68 40 22 C39.11248047 21.96132812 39.11248047 21.96132812 38.20703125 21.921875 C34.26804644 21.639142 31.4653551 21.24692312 27.9375 19.375 C26 17 26 17 25.3125 13.6875 C26.23328049 8.74876826 28.24510347 6.24362714 32 3 C38.14859957 -0.88993034 44.88061717 -0.69391453 52 0 C54.8984375 1.01953125 54.8984375 1.01953125 57 2 C56.35455571 5.48539917 54.89865603 8.02819057 53 11 C47.555 10.505 47.555 10.505 42 10 C41.67 10.66 41.34 11.32 41 12 C42.216875 12.103125 43.43375 12.20625 44.6875 12.3125 C48.43261509 12.79638213 51.02177359 13.54734296 54 16 C54.71483384 17.64658277 55.38788095 19.31253667 56 21 C56.53109375 20.07058594 57.0621875 19.14117187 57.609375 18.18359375 C61.07291667 12.12239583 64.53645833 6.06119792 68 0 C73.61 0 79.22 0 85 0 C86.98 7.92 88.96 15.84 91 24 C92.6275125 20.74497501 93.40649313 18.6862357 94.0703125 15.234375 C94.24433594 14.34492187 94.41835938 13.45546875 94.59765625 12.5390625 C94.77167969 11.61867188 94.94570313 10.69828125 95.125 9.75 C95.30675781 8.81414062 95.48851562 7.87828125 95.67578125 6.9140625 C96.12241318 4.610382 96.56190431 2.30531909 97 0 C101.95 0 106.9 0 112 0 C111.41078568 7.89547185 109.91342245 15.32224198 108 23 C111.63 23 115.26 23 119 23 C119.125 30.625 119.125 30.625 118 34 C104.47 34 90.94 34 77 34 C77 32.68 77 31.36 77 30 C73.04 30 69.08 30 65 30 C64.67 31.32 64.34 32.64 64 34 C59.05 34 54.1 34 49 34 C49 33.01 49 32.02 49 31 C48.154375 31.495 47.30875 31.99 46.4375 32.5 C38.71962243 35.83703313 28.67100704 34.96675311 21 32 C21 32.66 21 33.32 21 34 C12.09 34 3.18 34 -6 34 C-5.03129393 25.65422462 -3.98322573 17.38405265 -2.4375 9.125 C-2.31076904 8.44179687 -2.18403809 7.75859375 -2.0534668 7.0546875 C-1.13115222 2.26230445 -1.13115222 2.26230445 0 0 Z " fill="#0B65AC" transform="translate(326,106)"/>
<path d="M0 0 C49.5 0 99 0 150 0 C150.99 4.455 150.99 4.455 152 9 C101.84 9 51.68 9 0 9 C0 6.03 0 3.06 0 0 Z " fill="#0762AA" transform="translate(9,131)"/>
<path d="M0 0 C48.51 0 97.02 0 147 0 C147.99 4.455 147.99 4.455 149 9 C99.83 9 50.66 9 0 9 C0 6.03 0 3.06 0 0 Z " fill="#0762AA" transform="translate(9,119)"/>
<path d="M0 0 C47.85 0 95.7 0 145 0 C145.33 2.97 145.66 5.94 146 9 C97.82 9 49.64 9 0 9 C0 6.03 0 3.06 0 0 Z " fill="#0762AA" transform="translate(9,107)"/>
<path d="M0 0 C8.91 0 17.82 0 27 0 C26.67 3.3 26.34 6.6 26 10 C21.71 10 17.42 10 13 10 C13 10.99 13 11.98 13 13 C16.3 13 19.6 13 23 13 C23.125 19.75 23.125 19.75 22 22 C18.37 22 14.74 22 11 22 C11 22.66 11 23.32 11 24 C14.96 24 18.92 24 23 24 C22.125 32.875 22.125 32.875 21 34 C19.00035018 34.08758003 16.9976389 34.10696576 14.99609375 34.09765625 C13.78115234 34.09443359 12.56621094 34.09121094 11.31445312 34.08789062 C10.03505859 34.07951172 8.75566406 34.07113281 7.4375 34.0625 C6.15423828 34.05798828 4.87097656 34.05347656 3.54882812 34.04882812 C0.36583978 34.03699545 -2.81705762 34.02051068 -6 34 C-5.2355241 27.35065236 -4.15371207 20.77954324 -3 14.1875 C-2.82210938 13.15173828 -2.64421875 12.11597656 -2.4609375 11.04882812 C-2.20183594 9.56092773 -2.20183594 9.56092773 -1.9375 8.04296875 C-1.70353516 6.69755005 -1.70353516 6.69755005 -1.46484375 5.32495117 C-1 3 -1 3 0 0 Z " fill="#1067AD" transform="translate(452,106)"/>
<path d="M0 0 C1.6640625 1.16796875 1.6640625 1.16796875 3.6640625 4.16796875 C4.41901201 8.77667214 4.10070922 12.31084741 1.9765625 16.48046875 C-1.92737255 21.01747435 -6.05447381 24.77492435 -12.140625 25.50390625 C-18.52928787 25.58518695 -22.5452883 25.5804088 -27.3359375 21.16796875 C-30.03895152 17.11344771 -29.98092012 13.9277772 -29.3359375 9.16796875 C-26.90290107 4.10725298 -23.20307618 0.84702973 -18.3359375 -1.83203125 C-11.5267695 -3.94984335 -6.18928574 -3.21793542 0 0 Z M-19.3359375 6.16796875 C-22.02194149 9.18153421 -23.30619301 10.85921138 -23.3984375 14.91796875 C-22.50458448 17.31150736 -22.50458448 17.31150736 -20.2734375 18.54296875 C-15.71338784 19.51319208 -11.64222671 19.41058147 -7.5234375 17.19140625 C-4.70604093 15.091904 -3.40216651 13.36275995 -2.2734375 10.04296875 C-2.10116672 7.23136407 -2.10116672 7.23136407 -3.3984375 5.35546875 C-8.84123462 2.01956084 -14.08282901 3.07856099 -19.3359375 6.16796875 Z " fill="#FEFAF9" transform="translate(154.3359375,49.83203125)"/>
<path d="M0 0 C3.81388275 3.43249447 5.28059004 4.78726691 6.0625 10 C5.82674563 15.26518091 3.27464258 18.73218877 -0.5 22.25 C-6.2705809 26.16300343 -12.63020784 27.43967538 -19.5 26.25 C-22.73939656 24.51460898 -24.92321134 22.82678866 -27.5 20.25 C-28.391887 15.56167367 -28.53120413 11.07466667 -26.14453125 6.8515625 C-19.31326649 -1.26150691 -9.99467924 -4.99733962 0 0 Z M-20 9.625 C-21.67944002 12.56402004 -22.28340254 13.94230039 -21.5 17.25 C-18.46781687 20.09267168 -16.72830252 20.25362385 -12.5625 20.1875 C-8.46978456 19.46025 -5.65237866 18.02709549 -2.5 15.25 C-0.78544305 12.35970384 -0.78544305 12.35970384 -0.5 9.25 C-1.35217329 6.80797882 -1.35217329 6.80797882 -3.5 5.25 C-9.77928405 3.05955207 -15.35052109 5.20799504 -20 9.625 Z " fill="#FEFAF9" transform="translate(452.5,48.75)"/>
<path d="M0 0 C2.1875 1.6875 2.1875 1.6875 4.1875 4.6875 C4.1875 8.06122901 4.14294532 10.59556249 1.84765625 13.21875 C-1.43434351 15.97916055 -3.81778506 17.5727252 -8.0625 18.0625 C-13.12743461 17.55600654 -14.47791445 16.51007368 -17.8125 12.6875 C-18.56795209 8.45696832 -18.33559735 6.52819217 -16.0625 2.875 C-11.30713028 -1.74827612 -6.25898272 -2.9208586 0 0 Z " fill="#E7484F" transform="translate(499.8125,81.3125)"/>
<path d="M0 0 C4.29 0 8.58 0 13 0 C13.12375 1.6396875 13.12375 1.6396875 13.25 3.3125 C13.67829111 6.90108265 13.67829111 6.90108265 15.5 8.8125 C19.1826868 10.56177623 23.004472 11.2743165 27 12 C26.67 12.99 26.34 13.98 26 15 C20.73946963 15.31563182 17.55426184 14.66590937 13 12 C12.34 13.65 11.68 15.3 11 17 C10.67 16.01 10.34 15.02 10 14 C6.04 14 2.08 14 -2 14 C-2 13.34 -2 12.68 -2 12 C1.63 12 5.26 12 9 12 C9.33 9.03 9.66 6.06 10 3 C6.7 3 3.4 3 0 3 C0 2.01 0 1.02 0 0 Z " fill="#F3F5FA" transform="translate(339,116)"/>
<path d="M0 0 C2 2 2 2 2.375 5.4375 C2 9 2 9 0.5 10.9375 C-3.20624224 12.51265295 -5.97871831 12.32429691 -10 12 C-10.66 11.34 -11.32 10.68 -12 10 C-11.86764207 6.36015686 -11.75811748 3.9039093 -9.375 1.0625 C-6.10695442 -0.39952039 -3.53622611 -0.32742834 0 0 Z " fill="#F4F6FA" transform="translate(277,117)"/>
<path d="M0 0 C2.9375 1.6875 2.9375 1.6875 5 4 C5.625 6.5 5.625 6.5 5 9 C2.5 11.3125 2.5 11.3125 0 13 C-1.15837626 8.94568308 -0.83691257 6.78187881 1 3 C-3.455 3.495 -3.455 3.495 -8 4 C-8.66 6.97 -9.32 9.94 -10 13 C-9.01 13 -8.02 13 -7 13 C-7 11.68 -7 10.36 -7 9 C-6.01 9 -5.02 9 -4 9 C-4 10.32 -4 11.64 -4 13 C-3.01 13.33 -2.02 13.66 -1 14 C-8.27272727 15.45454545 -8.27272727 15.45454545 -11.5 13.4375 C-13.4706613 10.23517539 -13.75444916 8.69680091 -13 5 C-8.97692262 0.48630342 -6.21726293 -1.0173703 0 0 Z " fill="#FBE6E1" transform="translate(497,82)"/>
<path d="M0 0 C-0.33 3.63 -0.66 7.26 -1 11 C-0.01 11 0.98 11 2 11 C2 9.68 2 8.36 2 7 C2.99 7 3.98 7 5 7 C5 8.32 5 9.64 5 11 C5.99 11.33 6.98 11.66 8 12 C0.72727273 13.45454545 0.72727273 13.45454545 -2.5 11.4375 C-4.40657541 8.33931496 -4.53312164 6.57953104 -4 3 C-1.7 0 -1.7 0 0 0 Z " fill="#FDF4F1" transform="translate(488,84)"/>
<path d="M0 0 C1.134375 0.020625 2.26875 0.04125 3.4375 0.0625 C3.4375 1.0525 3.4375 2.0425 3.4375 3.0625 C0.4375 5.0625 0.4375 5.0625 -2.5625 6.0625 C-2.5625 7.3825 -2.5625 8.7025 -2.5625 10.0625 C-3.5525 10.0625 -4.5425 10.0625 -5.5625 10.0625 C-5.42200482 8.58281676 -5.27495174 7.10375484 -5.125 5.625 C-5.04378906 4.80128906 -4.96257812 3.97757812 -4.87890625 3.12890625 C-4.33318036 -0.43515544 -3.8167938 0.06696129 0 0 Z " fill="#E8505C" transform="translate(492.5625,84.9375)"/>
<path d="M0 0 C4.29 0 8.58 0 13 0 C12.34 1.98 11.68 3.96 11 6 C10.67 5.01 10.34 4.02 10 3 C6.7 3 3.4 3 0 3 C0 2.01 0 1.02 0 0 Z " fill="#E8EDF6" transform="translate(339,116)"/>
<path d="M0 0 C0.2475 0.5775 0.495 1.155 0.75 1.75 C2.26871823 4.48369281 3.49725443 6.09000996 6 8 C8.70173617 8.62626452 11.21525626 8.81435042 14 9 C13.67 9.66 13.34 10.32 13 11 C8.80779138 11.41922086 5.95349736 11.40813168 2.5625 8.875 C0 6 0 6 -0.375 2.6875 C-0.25125 1.800625 -0.1275 0.91375 0 0 Z " fill="#E63E4C" transform="translate(482,88)"/>
<path d="M0 0 C0.66 0 1.32 0 2 0 C1.41196203 3.02419525 0.77321882 6.01758453 0 9 C-0.99 8.67 -1.98 8.34 -3 8 C-4.1875 5.4375 -4.1875 5.4375 -5 3 C-3.35 3 -1.7 3 0 3 C0 2.01 0 1.02 0 0 Z " fill="#E53243" transform="translate(496,85)"/>
<path d="M0 0 C0.99 0.33 1.98 0.66 3 1 C0.03 3.475 0.03 3.475 -3 6 C-4.32 5.34 -5.64 4.68 -7 4 C-6.67 3.01 -6.34 2.02 -6 1 C-5.38125 1.20625 -4.7625 1.4125 -4.125 1.625 C-3.073125 1.810625 -3.073125 1.810625 -2 2 C-1.34 1.34 -0.68 0.68 0 0 Z " fill="#EB6665" transform="translate(500,92)"/>
<path d="M0 0 C0.33 0 0.66 0 1 0 C1 2.97 1 5.94 1 9 C-0.32 9 -1.64 9 -3 9 C-2.44271087 5.65626525 -1.64826111 2.96687001 0 0 Z " fill="#DCE4F1" transform="translate(401,118)"/>
</svg>
